<svg viewBox="0 0 356 93" fill="none" xmlns="http://www.w3.org/2000/svg">
<path d="M0.88 90V3H43.36C58.96 3 69.88 13.2 69.88 30.48C69.88 42.36 64.6 51.6 54.64 55.2C60.4 58.56 62.68 66.12 65.08 73.92C66.88 79.92 68.68 85.92 72.16 90L55.36 90.12C52.48 86.88 50.8 81.12 49.12 75.36C46.48 66.96 43.96 58.44 38.56 56.76H18.4V90H0.88ZM18.4 43.44H40.72C46.96 43.44 53.92 39 53.92 30C53.92 21.24 47.56 16.32 39.88 16.32H18.4V43.44ZM79.1641 90V3H96.5641V76.68H136.284V90H79.1641ZM143.617 90V3H202.657V16.32H161.137V41.4H196.777V54.72H161.137V90H143.617ZM278.345 66.72C278.345 84.12 261.545 92.4 243.545 92.4C218.225 92.4 206.705 75.96 207.545 58.68L225.905 58.8C224.945 66.6 228.425 79.08 244.385 79.08C254.225 79.08 260.825 74.28 260.825 67.44C260.825 48.12 209.585 57.48 209.585 25.2C209.585 7.79999 224.465 -7.15256e-06 242.225 -7.15256e-06C261.785 -7.15256e-06 275.945 9.48 275.465 33.96L256.745 33.84C257.465 19.68 252.305 12.96 241.385 12.96C231.785 12.96 226.265 18.24 226.265 24.84C226.265 45.36 278.345 36.24 278.345 66.72ZM286.232 90V3H302.312L339.752 62.16V3H355.832V90H339.752L302.312 30.24V90H286.232Z" fill="#231F1F"/>
</svg>
