<svg width="1448" height="195" viewBox="0 0 1448 195" fill="none" xmlns="http://www.w3.org/2000/svg">
<path d="M0.299001 189V7.02499H89.153C121.783 7.02499 144.624 28.36 144.624 64.504C144.624 89.353 133.58 108.68 112.747 116.21C124.795 123.238 129.564 139.051 134.584 155.366C138.349 167.916 142.114 180.466 149.393 189L114.253 189.251C108.229 182.474 104.715 170.426 101.201 158.378C95.679 140.808 90.408 122.987 79.113 119.473H36.945V189H0.299001ZM36.945 91.612H83.631C96.683 91.612 111.241 82.325 111.241 63.5C111.241 45.177 97.938 34.886 81.874 34.886H36.945V91.612ZM159.776 97.134C159.776 43.671 200.438 0.247992 253.901 0.247992C307.364 0.247992 348.277 43.671 348.277 97.134C348.277 150.597 307.364 194.02 253.901 194.02C200.438 194.02 159.776 150.597 159.776 97.134ZM311.129 97.134C311.129 58.982 287.284 33.129 253.901 33.129C220.518 33.129 196.673 58.982 196.673 97.134C196.673 135.286 220.518 161.139 253.901 161.139C287.284 161.139 311.129 135.286 311.129 97.134ZM368.955 189V7.02499H501.734V34.886H405.601V85.086H487.678V112.947H405.601V161.139H501.734V189H368.955ZM520.198 189V7.02499H556.593V161.139H639.674V189H520.198ZM643.147 97.134C643.147 43.671 683.809 0.247992 737.272 0.247992C790.735 0.247992 831.648 43.671 831.648 97.134C831.648 150.597 790.735 194.02 737.272 194.02C683.809 194.02 643.147 150.597 643.147 97.134ZM794.5 97.134C794.5 58.982 770.655 33.129 737.272 33.129C703.889 33.129 680.044 58.982 680.044 97.134C680.044 135.286 703.889 161.139 737.272 161.139C770.655 161.139 794.5 135.286 794.5 97.134ZM852.577 189V7.02499H976.069V34.886H889.223V87.345H963.77V115.206H889.223V189H852.577ZM1134.38 140.306C1134.38 176.701 1099.24 194.02 1061.59 194.02C1008.63 194.02 984.537 159.633 986.294 123.489L1024.7 123.74C1022.69 140.055 1029.97 166.159 1063.35 166.159C1083.93 166.159 1097.74 156.119 1097.74 141.812C1097.74 101.401 990.561 120.979 990.561 53.46C990.561 17.065 1021.68 0.749985 1058.83 0.749985C1099.75 0.749985 1129.36 20.579 1128.36 71.783L1089.2 71.532C1090.71 41.914 1079.92 27.858 1057.08 27.858C1037 27.858 1025.45 38.902 1025.45 52.707C1025.45 95.628 1134.38 76.552 1134.38 140.306ZM1150.88 189V7.02499H1283.66V34.886H1187.53V85.086H1269.6V112.947H1187.53V161.139H1283.66V189H1150.88ZM1301.87 189V7.02499H1335.51L1413.82 130.768V7.02499H1447.45V189H1413.82L1335.51 64.002V189H1301.87Z" fill="#2A2A2A"/>
</svg>
